<svg width="340" height="39" viewBox="0 0 340 39" fill="none" xmlns="http://www.w3.org/2000/svg">
<path d="M6.13372 21.673V29.9757H0.811523V7.62244H9.62181C11.5869 7.62244 13.0881 7.83532 14.1252 8.2611C15.1733 8.67596 16.1067 9.4238 16.9255 10.5046C17.7443 11.5854 18.1537 12.9119 18.1537 14.484C18.1537 15.5866 17.9354 16.662 17.4987 17.7101C17.062 18.7581 16.4451 19.5824 15.6482 20.1828C14.8512 20.7833 14.0761 21.1818 13.3228 21.3783C12.5804 21.5748 11.4123 21.673 9.81832 21.673H6.13372ZM5.95359 17.6118H9.3598C10.659 17.6118 11.5706 17.3116 12.0946 16.7111C12.6186 16.1107 12.8806 15.4229 12.8806 14.6477C12.8806 13.7416 12.5859 13.0211 11.9963 12.4861C11.4177 11.9512 10.5334 11.6837 9.34342 11.6837H5.95359V17.6118Z" fill="#05284C"/>
<path d="M35.021 29.9757H30.2883C30.1355 29.3206 30.0591 28.4582 30.0591 27.3883C29.2293 28.5673 28.3996 29.3534 27.5699 29.7464C26.7511 30.1285 25.8177 30.3196 24.7696 30.3196C23.2194 30.3196 21.9639 29.8993 21.0031 29.0586C20.0533 28.218 19.5784 27.088 19.5784 25.6688C19.5784 24.6316 19.8568 23.6764 20.4136 22.803C20.9704 21.9296 21.8656 21.2473 23.0993 20.756C24.3329 20.2538 26.5819 19.8826 29.8462 19.6424V18.6926C29.8462 17.0878 29.0438 16.2853 27.4389 16.2853C25.7249 16.2853 24.7696 17.0878 24.5731 18.6926L20.0697 18.2668C20.3645 16.3891 21.2542 15.0571 22.739 14.2711C24.2237 13.485 25.905 13.092 27.7828 13.092C28.9073 13.092 29.9663 13.223 30.9597 13.485C31.9532 13.7471 32.7283 14.1401 33.2851 14.6641C33.8419 15.1881 34.2186 15.7449 34.4151 16.3345C34.6116 16.9131 34.7098 17.9284 34.7098 19.3804V26.8806C34.7098 28.3217 34.8136 29.3534 35.021 29.9757ZM29.8462 22.0497C26.429 22.3881 24.7205 23.4198 24.7205 25.1448C24.7205 25.7234 24.9006 26.2256 25.2609 26.6513C25.6212 27.0662 26.1343 27.2736 26.8002 27.2736C27.6627 27.2736 28.3833 26.9188 28.9619 26.2092C29.5514 25.4887 29.8462 24.6043 29.8462 23.5563V22.0497Z" fill="#05284C"/>
<path d="M43.4874 29.9757H38.7547V13.4359H43.2254V16.5146C43.9132 14.222 45.1031 13.0756 46.7953 13.0756C47.0355 13.0756 47.3303 13.092 47.6796 13.1248V17.9393C46.6862 17.9393 45.911 18.0922 45.3542 18.3978C44.8084 18.7035 44.3608 19.2549 44.0114 20.0518C43.6621 20.8379 43.4874 21.9023 43.4874 23.2451V29.9757Z" fill="#05284C"/>
<path d="M56.5882 17.2351V24.2277C56.5882 25.1011 56.7192 25.6852 56.9812 25.9799C57.2432 26.2747 57.8601 26.4221 58.8317 26.4221C59.2793 26.4221 59.7979 26.4002 60.3874 26.3566V29.9757C58.9682 30.2159 57.9474 30.3359 57.3251 30.3359C55.2945 30.3359 53.8534 29.9484 53.0018 29.1733C52.1503 28.3872 51.7245 26.9734 51.7245 24.9319V17.2351H49.1044V13.4359H52.0029L52.3959 8.55587L56.5882 8.22835V13.4359H60.1582V17.2351H56.5882Z" fill="#05284C"/>
<path d="M77.2711 29.9757H72.391V20.6905C72.391 19.566 72.3474 18.7963 72.26 18.3815C72.1727 17.9666 71.9598 17.6173 71.6214 17.3334C71.2829 17.0386 70.8571 16.8913 70.344 16.8913C68.63 16.8913 67.773 18.1577 67.773 20.6905V29.9757H62.8929V13.4359H67.4291V16.2362C68.1824 14.9043 68.9248 14.0473 69.6562 13.6652C70.3877 13.2831 71.1792 13.092 72.0308 13.092C73.6029 13.092 74.8693 13.5178 75.83 14.3693C76.7907 15.21 77.2711 16.8694 77.2711 19.3477V29.9757Z" fill="#05284C"/>
<path d="M96.1526 22.5246H85.5082C85.4973 22.8194 85.4918 23.0759 85.4918 23.2943C85.4918 24.4733 85.803 25.3631 86.4253 25.9636C87.0585 26.564 87.8118 26.8642 88.6852 26.8642C90.3118 26.8642 91.2889 25.9963 91.6164 24.2605L96.038 24.588C94.8043 28.409 92.2988 30.3196 88.5214 30.3196C86.8729 30.3196 85.47 29.9921 84.3128 29.337C83.1664 28.6711 82.2166 27.7049 81.4633 26.4385C80.721 25.1721 80.3498 23.6545 80.3498 21.8859C80.3498 19.2549 81.0976 17.1314 82.5933 15.5157C84.0999 13.8999 86.0322 13.092 88.3904 13.092C90.5193 13.092 92.3425 13.8453 93.86 15.3519C95.3884 16.8476 96.1526 19.2385 96.1526 22.5246ZM85.4918 19.6915H91.3708C91.218 17.4207 90.2845 16.2853 88.5705 16.2853C86.7364 16.2853 85.7102 17.4207 85.4918 19.6915Z" fill="#05284C"/>
<path d="M103.98 29.9757H99.2477V13.4359H103.718V16.5146C104.406 14.222 105.596 13.0756 107.288 13.0756C107.528 13.0756 107.823 13.092 108.173 13.1248V17.9393C107.179 17.9393 106.404 18.0922 105.847 18.3978C105.301 18.7035 104.854 19.2549 104.504 20.0518C104.155 20.8379 103.98 21.9023 103.98 23.2451V29.9757Z" fill="#05284C"/>
<path d="M116.442 21.673V29.9757H111.12V7.62244H119.931C121.896 7.62244 123.397 7.83532 124.434 8.2611C125.482 8.67596 126.415 9.4238 127.234 10.5046C128.053 11.5854 128.462 12.9119 128.462 14.484C128.462 15.5866 128.244 16.662 127.807 17.7101C127.371 18.7581 126.754 19.5824 125.957 20.1828C125.16 20.7833 124.385 21.1818 123.632 21.3783C122.889 21.5748 121.721 21.673 120.127 21.673H116.442ZM116.262 17.6118H119.669C120.968 17.6118 121.879 17.3116 122.403 16.7111C122.927 16.1107 123.189 15.4229 123.189 14.6477C123.189 13.7416 122.895 13.0211 122.305 12.4861C121.726 11.9512 120.842 11.6837 119.652 11.6837H116.262V17.6118Z" fill="#05284C"/>
<path d="M131.148 29.9757V7.62244H136.028V29.9757H131.148Z" fill="#05284C"/>
<path d="M154.189 13.4359V29.9757H149.669V27.159C148.818 29.2661 147.191 30.3196 144.789 30.3196C143.545 30.3196 142.589 30.0903 141.924 29.6318C141.258 29.1623 140.777 28.5291 140.482 27.7322C140.199 26.9243 140.057 25.7616 140.057 24.2441V13.4359H144.789V24.2441C144.789 25.7288 145.401 26.4712 146.623 26.4712C147.246 26.4712 147.786 26.2965 148.245 25.9472C148.703 25.5869 148.993 25.2048 149.113 24.8009C149.244 24.3969 149.309 23.7037 149.309 22.7211V13.4359H154.189Z" fill="#05284C"/>
<path d="M170.614 17.4317L167.061 18.3815C166.646 16.8858 165.57 16.138 163.835 16.138C162.197 16.138 161.378 16.6347 161.378 17.6282C161.378 18.0212 161.526 18.3378 161.82 18.578C162.126 18.8072 162.912 19.0038 164.179 19.1675C166.067 19.4186 167.465 19.7079 168.371 20.0354C169.277 20.363 169.992 20.9143 170.516 21.6894C171.051 22.4646 171.318 23.4198 171.318 24.5552C171.318 26.2583 170.669 27.6448 169.37 28.7147C168.081 29.7846 166.275 30.3196 163.949 30.3196C159.735 30.3196 157.219 28.6874 156.4 25.4231L160.51 24.8172C160.849 26.302 162.071 27.0444 164.179 27.0444C164.986 27.0444 165.669 26.9024 166.226 26.6186C166.782 26.3238 167.061 25.9308 167.061 25.4395C167.061 24.6753 166.444 24.2222 165.21 24.0803C161.869 23.6655 159.67 23.0268 158.611 22.1643C157.563 21.2909 157.039 20.0791 157.039 18.5289C157.039 16.9568 157.65 15.6576 158.873 14.6314C160.095 13.6051 161.809 13.092 164.015 13.092C165.762 13.092 167.159 13.4359 168.207 14.1237C169.255 14.8115 170.057 15.9142 170.614 17.4317Z" fill="#05284C"/>
<path d="M181.386 0H277.989C283.531 0 287.616 5.18134 286.323 10.5708L279.713 38.1114H172.239L181.386 0Z" fill="#ED3237"/>
<path d="M196.438 27.8427C193.33 27.8427 191.06 27.0378 189.629 25.428C188.198 23.7958 187.483 21.7723 187.483 19.3576C187.483 18.6421 187.561 17.8372 187.718 16.9429C188.12 14.7294 188.959 12.8065 190.233 11.1743C191.507 9.51978 193.028 8.26769 194.794 7.41806C196.583 6.54607 198.427 6.11008 200.328 6.11008C201.222 6.11008 202.139 6.21069 203.078 6.41192C204.04 6.59079 204.789 6.81438 205.325 7.08268C205.459 7.17211 205.538 7.26155 205.56 7.35098C205.605 7.44042 205.616 7.60811 205.593 7.85406L205.057 12.3482C205.057 12.4152 205.001 12.4488 204.889 12.4488C204.777 12.4488 204.71 12.4152 204.688 12.3482C204.308 10.6713 203.615 9.36327 202.609 8.4242C201.625 7.48514 200.406 7.0156 198.953 7.0156C197.008 7.0156 195.364 7.79816 194.023 9.36327C192.704 10.9284 191.854 13.086 191.474 15.8361C191.34 16.7752 191.273 17.6919 191.273 18.5862C191.273 20.2184 191.485 21.6829 191.91 22.9797C192.335 24.2765 192.95 25.305 193.755 26.0652C194.582 26.8031 195.543 27.172 196.639 27.172C197.757 27.172 198.897 26.7583 200.06 25.9311C201.222 25.1038 202.452 23.8182 203.749 22.0742C203.771 22.0295 203.816 22.0071 203.883 22.0071C203.95 22.0071 204.006 22.0295 204.051 22.0742C204.118 22.0965 204.14 22.1301 204.118 22.1748L203.212 26.0317C203.145 26.3 203.078 26.49 203.011 26.6018C202.944 26.6913 202.81 26.7583 202.609 26.8031C200.596 27.4962 198.539 27.8427 196.438 27.8427Z" fill="white"/>
<path d="M209.715 27.9098C208.239 27.9098 207.11 27.4403 206.328 26.5012C205.567 25.5398 205.187 24.2989 205.187 22.7785C205.187 22.1077 205.243 21.504 205.355 20.9674C205.601 19.6259 206.082 18.4297 206.797 17.3789C207.535 16.328 208.418 15.5119 209.447 14.9306C210.475 14.3493 211.582 14.0586 212.767 14.0586C214.265 14.0586 215.405 14.5169 216.188 15.4337C216.993 16.328 217.395 17.5354 217.395 19.0558C217.395 19.6595 217.328 20.2967 217.194 20.9674C216.903 22.4431 216.367 23.7064 215.584 24.7572C214.824 25.7857 213.918 26.5683 212.868 27.1049C211.839 27.6415 210.788 27.9098 209.715 27.9098ZM210.855 27.0714C211.571 27.0714 212.186 26.6577 212.7 25.8305C213.236 25.0032 213.628 23.8741 213.874 22.4431C214.03 21.5711 214.108 20.688 214.108 19.7936C214.108 18.3403 213.885 17.1553 213.438 16.2386C213.013 15.3219 212.42 14.8635 211.66 14.8635C210.989 14.8635 210.386 15.2548 209.849 16.0373C209.335 16.8199 208.944 17.9825 208.675 19.5253C208.519 20.3973 208.441 21.2805 208.441 22.1748C208.441 23.6281 208.653 24.8131 209.078 25.7298C209.503 26.6242 210.095 27.0714 210.855 27.0714Z" fill="white"/>
<path d="M249.642 14.0585C250.491 14.0585 251.151 14.2038 251.62 14.4945C252.09 14.7852 252.325 15.1876 252.325 15.7019C252.325 16.708 251.576 17.6583 250.078 18.5526C248.602 19.4246 246.813 20.0618 244.712 20.4643C244.644 20.9562 244.611 21.4369 244.611 21.9064C244.611 23.2479 244.89 24.3323 245.449 25.1596C246.008 25.9645 246.836 26.367 247.931 26.367C248.401 26.367 248.904 26.2887 249.44 26.1322C249.999 25.9533 250.502 25.685 250.95 25.3273H250.983C251.05 25.3273 251.106 25.3608 251.151 25.4279C251.218 25.495 251.229 25.5509 251.184 25.5956C250.379 26.3782 249.53 26.9483 248.636 27.306C247.741 27.6638 246.847 27.8427 245.952 27.8427C244.41 27.8427 243.247 27.3731 242.465 26.4341C241.704 25.495 241.324 24.31 241.324 22.879C241.324 22.3871 241.38 21.8393 241.492 21.2357C241.715 20.0283 242.207 18.8768 242.968 17.7812C243.75 16.6857 244.723 15.7913 245.885 15.0982C247.048 14.4051 248.3 14.0585 249.642 14.0585ZM248.937 16.5739C248.96 16.4844 248.971 16.3503 248.971 16.1714C248.971 15.7913 248.87 15.5006 248.669 15.2994C248.49 15.0758 248.233 14.964 247.898 14.964C247.182 14.964 246.545 15.4224 245.986 16.3391C245.449 17.2558 245.047 18.452 244.779 19.9277C247.35 19.2569 248.736 18.139 248.937 16.5739Z" fill="white"/>
<path d="M256.934 27.8762C255.368 27.8762 254.217 27.3731 253.479 26.367C252.741 25.3385 252.372 24.0529 252.372 22.5101C252.372 21.9511 252.428 21.3363 252.54 20.6655C252.764 19.3687 253.267 18.2172 254.049 17.2111C254.854 16.2049 255.793 15.4336 256.866 14.897C257.94 14.338 259.002 14.0585 260.053 14.0585C260.88 14.0585 261.607 14.2374 262.233 14.5951C262.881 14.9529 263.205 15.4671 263.205 16.1379C263.205 16.6521 263.049 17.0658 262.736 17.3788C262.445 17.6694 262.031 17.8148 261.495 17.8148C260.958 17.8148 260.567 17.6806 260.321 17.4123C260.075 17.1217 259.907 16.7527 259.818 16.3056C259.706 15.8807 259.561 15.5565 259.382 15.333C259.225 15.1094 258.957 14.9976 258.577 14.9976C257.906 14.9976 257.314 15.4112 256.799 16.2385C256.285 17.0434 255.916 18.1278 255.693 19.4917C255.559 20.2295 255.491 20.9338 255.491 21.6046C255.491 23.0132 255.782 24.1423 256.363 24.9919C256.945 25.8192 257.817 26.2328 258.979 26.2328C259.427 26.2328 259.941 26.1322 260.522 25.931C261.103 25.7074 261.573 25.4615 261.931 25.1931H261.964C262.031 25.1931 262.098 25.2267 262.166 25.2938C262.233 25.3608 262.244 25.4279 262.199 25.495C261.394 26.2775 260.533 26.87 259.617 27.2725C258.7 27.675 257.806 27.8762 256.934 27.8762Z" fill="white"/>
<path d="M272.384 14.4945C272.54 14.4945 272.619 14.5951 272.619 14.7963C272.619 14.9752 272.484 15.2435 272.216 15.6013C271.97 15.959 271.735 16.1379 271.512 16.1379C271.445 16.1379 271.076 16.082 270.405 15.9702C269.757 15.8584 269.019 15.7801 268.192 15.7354L266.783 23.7175C266.738 24.0752 266.716 24.3212 266.716 24.4553C266.716 24.9919 266.85 25.3832 267.118 25.6291C267.409 25.8751 267.845 25.9981 268.426 25.9981C269.276 25.9981 270.215 25.5844 271.244 24.7572H271.277C271.367 24.7572 271.445 24.7907 271.512 24.8578C271.579 24.9248 271.579 24.9919 271.512 25.059C270.483 26.0428 269.567 26.7583 268.762 27.2054C267.979 27.6302 267.197 27.8427 266.414 27.8427C264.603 27.8427 263.698 27.0266 263.698 25.3944C263.698 25.059 263.731 24.6901 263.798 24.2876L265.106 17.1776C265.173 16.7975 265.207 16.4844 265.207 16.2385C265.207 15.9031 265.117 15.6795 264.938 15.5677C264.76 15.4559 264.435 15.4 263.966 15.4C263.899 15.4 263.865 15.3218 263.865 15.1653C263.865 14.964 263.899 14.8634 263.966 14.8634C265.755 14.8634 267.174 13.8796 268.225 11.9121C268.27 11.845 268.348 11.8115 268.46 11.8115C268.572 11.8115 268.672 11.8338 268.762 11.8785C268.851 11.9233 268.885 11.968 268.862 12.0127L268.359 14.7628C268.985 14.7405 269.522 14.7181 269.969 14.6957C270.416 14.651 270.796 14.6175 271.109 14.5951C271.691 14.528 272.116 14.4945 272.384 14.4945Z" fill="white"/>
<path d="M233.039 12.1956C233.07 12.1956 233.086 12.2429 233.086 12.3374C233.086 12.4319 233.07 12.4792 233.039 12.4792C232.442 12.4792 231.924 12.6997 231.484 13.1408C231.06 13.5819 230.777 14.1805 230.636 14.9366L228.468 27.1292C228.468 27.1765 228.421 27.2158 228.327 27.2473C228.249 27.2946 228.162 27.3182 228.068 27.3182C227.927 27.3182 227.832 27.271 227.785 27.1765L221.001 14.7476L219.304 24.2228C219.273 24.3803 219.257 24.6009 219.257 24.8844C219.257 25.4515 219.399 25.8926 219.681 26.2077C219.964 26.5227 220.357 26.6802 220.859 26.6802C220.891 26.6802 220.906 26.7275 220.906 26.822C220.906 26.9165 220.891 26.9638 220.859 26.9638C220.451 26.9638 220.137 26.9559 219.917 26.9402L218.574 26.9165L217.302 26.9402C217.066 26.9559 216.721 26.9638 216.265 26.9638C216.218 26.9638 216.195 26.9165 216.195 26.822C216.195 26.7275 216.218 26.6802 216.265 26.6802C216.862 26.6802 217.373 26.4597 217.797 26.0186C218.237 25.5776 218.519 24.979 218.645 24.2228L220.506 13.8733C220.208 13.3534 219.917 12.9911 219.634 12.7863C219.352 12.5816 219.045 12.4792 218.716 12.4792C218.668 12.4792 218.645 12.4319 218.645 12.3374C218.645 12.2429 218.668 12.1956 218.716 12.1956L219.823 12.2192C220.058 12.235 220.372 12.2429 220.765 12.2429C221.142 12.2429 221.464 12.235 221.731 12.2192C222.014 12.2035 222.202 12.1956 222.296 12.1956C222.391 12.1956 222.461 12.2271 222.508 12.2901C222.555 12.3374 222.61 12.4477 222.673 12.6209C222.705 12.684 222.752 12.7942 222.815 12.9517C222.893 13.0935 222.979 13.251 223.074 13.4243L228.468 23.2777L229.976 14.9366C230.023 14.6688 230.047 14.4325 230.047 14.2277C230.047 13.6764 229.905 13.251 229.623 12.9517C229.34 12.6367 228.947 12.4792 228.445 12.4792C228.398 12.4792 228.374 12.4319 228.374 12.3374C228.374 12.2429 228.398 12.1956 228.445 12.1956L229.293 12.2192C229.858 12.2508 230.337 12.2665 230.73 12.2665C231.013 12.2665 231.437 12.2508 232.002 12.2192L233.039 12.1956Z" fill="#05284C"/>
<path d="M243.588 12.1956C243.619 12.1956 243.635 12.2428 243.635 12.3374C243.635 12.4319 243.619 12.4791 243.588 12.4791C242.996 12.4791 242.481 12.6997 242.045 13.1407C241.624 13.5818 241.344 14.1804 241.203 14.9366L239.053 27.1292C239.053 27.1764 239.006 27.2158 238.912 27.2473C238.835 27.2946 238.749 27.3182 238.655 27.3182C238.515 27.3182 238.422 27.2709 238.375 27.1764L231.642 14.7475L231.151 13.8733C230.855 13.3534 230.567 12.9911 230.287 12.7863C230.006 12.5815 229.702 12.4791 229.375 12.4791C229.328 12.4791 229.305 12.4319 229.305 12.3374C229.305 12.2428 229.328 12.1956 229.375 12.1956L230.474 12.2192C230.707 12.235 231.019 12.2428 231.409 12.2428C231.783 12.2428 232.102 12.235 232.367 12.2192C232.648 12.2035 232.835 12.1956 232.928 12.1956C233.022 12.1956 233.092 12.2271 233.138 12.2901C233.185 12.3374 233.24 12.4476 233.302 12.6209C233.333 12.6839 233.38 12.7942 233.442 12.9517C233.52 13.0935 233.606 13.251 233.699 13.4243L239.053 23.2776L240.549 14.9366C240.596 14.6688 240.619 14.4325 240.619 14.2277C240.619 13.6763 240.479 13.251 240.198 12.9517C239.918 12.6367 239.528 12.4791 239.029 12.4791C238.983 12.4791 238.959 12.4319 238.959 12.3374C238.959 12.2428 238.983 12.1956 239.029 12.1956L239.871 12.2192C240.432 12.2507 240.907 12.2665 241.297 12.2665C241.577 12.2665 241.998 12.2507 242.559 12.2192L243.588 12.1956Z" fill="#05284C"/>
<path d="M292.009 31.3908C295.126 28.8406 297.472 26.8256 299.046 25.3458C300.652 23.8661 301.817 22.528 302.541 21.3316C303.296 20.1037 303.674 18.8443 303.674 17.5535C303.674 16.6404 303.422 15.9006 302.918 15.3338C302.415 14.7356 301.722 14.4365 300.841 14.4365C299.802 14.4365 298.826 14.9245 297.913 15.9006C296.999 16.8451 296.118 18.2461 295.268 20.1037C295.205 20.1667 295.158 20.1982 295.126 20.1982C295.032 20.1982 294.937 20.1667 294.843 20.1037C294.748 20.0407 294.717 19.962 294.748 19.8676L297.487 12.7364C297.55 12.6734 297.613 12.6419 297.676 12.6419C297.771 12.6419 297.85 12.6734 297.913 12.7364C297.975 12.7994 297.991 12.8623 297.96 12.9253C297.865 13.2401 297.818 13.492 297.818 13.6809C297.818 14.0272 297.975 14.2004 298.29 14.2004C298.542 14.2004 298.999 14.0902 299.66 13.8698C300.888 13.4605 301.958 13.2559 302.871 13.2559C304.131 13.2559 305.122 13.5865 305.847 14.2476C306.571 14.9088 306.933 15.8061 306.933 16.9395C306.933 18.1045 306.634 19.1907 306.035 20.1982C305.437 21.1742 304.619 22.1187 303.58 23.0317C302.572 23.9448 301.092 25.1727 299.14 26.7154C297.913 27.6599 296.874 28.4785 296.023 29.1712C295.929 29.2026 295.898 29.2341 295.929 29.2656C295.96 29.2971 296.008 29.3128 296.071 29.3128C298.873 29.3128 300.919 29.2656 302.21 29.1712C303.501 29.0452 304.493 28.7776 305.185 28.3683C305.878 27.959 306.397 27.2821 306.744 26.3376C306.807 26.2431 306.886 26.1959 306.98 26.1959C307.074 26.1959 307.153 26.2274 307.216 26.2903C307.311 26.3533 307.342 26.4163 307.311 26.4793L305.658 31.7214C305.532 31.9732 305.39 32.0992 305.233 32.0992H292.293C292.135 32.0992 292.009 32.0205 291.915 31.8631C291.852 31.7056 291.883 31.5482 292.009 31.3908ZM312.468 32.5714C311.776 32.5714 311.225 32.3668 310.815 31.9575C310.437 31.5482 310.249 30.9972 310.249 30.3046C310.249 29.6749 310.437 29.1712 310.815 28.7933C311.225 28.4155 311.776 28.2266 312.468 28.2266C313.161 28.2266 313.696 28.4155 314.074 28.7933C314.452 29.1397 314.641 29.6434 314.641 30.3046C314.641 31.0287 314.452 31.5954 314.074 32.0047C313.696 32.3825 313.161 32.5714 312.468 32.5714ZM327.306 32.7131C325.103 32.7131 323.308 32.0047 321.923 30.5879C320.569 29.1712 319.892 27.2978 319.892 24.968C319.892 24.2124 319.955 23.504 320.081 22.8428C320.427 20.9853 321.12 19.3323 322.159 17.8841C323.198 16.4358 324.473 15.3024 325.984 14.4838C327.495 13.6652 329.101 13.2559 330.801 13.2559C333.005 13.2559 334.768 13.9485 336.091 15.3338C337.444 16.6877 338.121 18.498 338.121 20.7649C338.121 21.3631 338.043 22.1029 337.885 22.9845C337.539 24.8736 336.846 26.558 335.807 28.0377C334.8 29.486 333.54 30.6352 332.029 31.4852C330.549 32.3038 328.975 32.7131 327.306 32.7131ZM328.015 31.9575C329.621 31.9575 330.959 31.1861 332.029 29.6434C333.1 28.1007 333.839 26.07 334.249 23.5512C334.406 22.6067 334.485 21.5835 334.485 20.4815C334.485 18.4036 334.091 16.8136 333.304 15.7117C332.549 14.5782 331.525 14.0115 330.234 14.0115C328.66 14.0115 327.275 14.7986 326.079 16.3728C324.914 17.9155 324.127 19.9463 323.717 22.465C323.56 23.567 323.481 24.4957 323.481 25.2514C323.481 27.2664 323.859 28.8878 324.615 30.1157C325.402 31.3436 326.535 31.9575 328.015 31.9575Z" fill="#05284C"/>
</svg>
